<?xml version="1.0" encoding="UTF-8" standalone="no"?>
<!DOCTYPE svg PUBLIC "-//W3C//DTD SVG 1.1//EN"
 "http://www.w3.org/Graphics/SVG/1.1/DTD/svg11.dtd">
<!-- Generated by graphviz version 15.1.1 (20260805.0921)
 -->
<!-- Title: G Pages: 1 -->
<svg width="838pt" height="190pt"
 viewBox="0.00 0.00 838.00 190.00" xmlns="http://www.w3.org/2000/svg" xmlns:xlink="http://www.w3.org/1999/xlink">
<g id="graph0" class="graph" transform="scale(1 1) rotate(0) translate(4 186)">
<title>G</title>
<polygon fill="white" stroke="none" points="-4,4 -4,-186 833.88,-186 833.88,4 -4,4"/>
<!-- queued -->
<g id="node1" class="node">
<title>queued</title>
<ellipse fill="#fbf8f1" stroke="black" cx="38.92" cy="-125" rx="38.92" ry="18"/>
<text xml:space="preserve" text-anchor="middle" x="38.92" y="-120.8" font-family="Times,serif" font-size="14.00">queued</text>
</g>
<!-- processing -->
<g id="node2" class="node">
<title>processing</title>
<ellipse fill="#fbf8f1" stroke="black" cx="197.28" cy="-125" rx="52.34" ry="18"/>
<text xml:space="preserve" text-anchor="middle" x="197.28" y="-120.8" font-family="Times,serif" font-size="14.00">processing</text>
</g>
<!-- queued&#45;&gt;processing -->
<g id="edge1" class="edge">
<title>queued&#45;&gt;processing</title>
<path fill="none" stroke="black" d="M78.17,-125C94.72,-125 114.53,-125 133.15,-125"/>
<polygon fill="black" stroke="black" points="133.04,-128.5 143.04,-125 133.04,-121.5 133.04,-128.5"/>
<text xml:space="preserve" text-anchor="middle" x="111.39" y="-129.2" font-family="Times,serif" font-size="14.00">claim</text>
</g>
<!-- failed -->
<g id="node3" class="node">
<title>failed</title>
<ellipse fill="#fbf8f1" stroke="black" cx="634.3" cy="-106" rx="33.02" ry="18"/>
<text xml:space="preserve" text-anchor="middle" x="634.3" y="-101.8" font-family="Times,serif" font-size="14.00">failed</text>
</g>
<!-- processing&#45;&gt;failed -->
<g id="edge6" class="edge">
<title>processing&#45;&gt;failed</title>
<path fill="none" stroke="black" d="M248.63,-129.06C255.01,-129.45 261.47,-129.78 267.62,-130 391.55,-134.46 422.97,-133.85 546.59,-124 555.05,-123.33 557.22,-123.42 565.59,-122 574.55,-120.48 584.09,-118.47 593.1,-116.39"/>
<polygon fill="black" stroke="black" points="593.75,-119.83 602.67,-114.1 592.13,-113.02 593.75,-119.83"/>
</g>
<!-- committed -->
<g id="node4" class="node">
<title>committed</title>
<ellipse fill="#fbf8f1" stroke="black" cx="338.96" cy="-60" rx="52.34" ry="18"/>
<text xml:space="preserve" text-anchor="middle" x="338.96" y="-55.8" font-family="Times,serif" font-size="14.00">committed</text>
</g>
<!-- processing&#45;&gt;committed -->
<g id="edge3" class="edge">
<title>processing&#45;&gt;committed</title>
<path fill="none" stroke="black" d="M228.95,-110.27C240.98,-104.52 254.93,-97.91 267.62,-92 276.72,-87.76 286.51,-83.27 295.81,-79.03"/>
<polygon fill="black" stroke="black" points="297.01,-82.33 304.66,-75.01 294.11,-75.96 297.01,-82.33"/>
</g>
<!-- dead_letter -->
<g id="node7" class="node">
<title>dead_letter</title>
<ellipse fill="#fbf8f1" stroke="black" cx="775.94" cy="-144" rx="53.93" ry="18"/>
<text xml:space="preserve" text-anchor="middle" x="775.94" y="-139.8" font-family="Times,serif" font-size="14.00">dead_letter</text>
</g>
<!-- processing&#45;&gt;dead_letter -->
<g id="edge10" class="edge">
<title>processing&#45;&gt;dead_letter</title>
<path fill="none" stroke="black" d="M221.81,-141.18C248.66,-158.03 294.48,-182 337.96,-182 337.96,-182 337.96,-182 635.3,-182 668.2,-182 703.99,-172.06 731.09,-162.34"/>
<polygon fill="black" stroke="black" points="732.2,-165.66 740.35,-158.89 729.76,-159.1 732.2,-165.66"/>
</g>
<!-- failed&#45;&gt;processing -->
<g id="edge2" class="edge">
<title>failed&#45;&gt;processing</title>
<path fill="none" stroke="black" d="M601.02,-106.8C557.48,-107.93 477.52,-110.2 409.29,-113.2 359.2,-115.41 302.46,-118.62 260.44,-121.14"/>
<polygon fill="black" stroke="black" points="260.28,-117.64 250.51,-121.73 260.7,-124.63 260.28,-117.64"/>
<text xml:space="preserve" text-anchor="middle" x="422.51" y="-117.4" font-family="Times,serif" font-size="14.00">retry</text>
</g>
<!-- failed&#45;&gt;dead_letter -->
<g id="edge9" class="edge">
<title>failed&#45;&gt;dead_letter</title>
<path fill="none" stroke="black" d="M664.24,-113.87C680.94,-118.42 702.47,-124.28 722.09,-129.62"/>
<polygon fill="black" stroke="black" points="721.04,-132.96 731.61,-132.21 722.88,-126.2 721.04,-132.96"/>
</g>
<!-- committed&#45;&gt;failed -->
<g id="edge7" class="edge">
<title>committed&#45;&gt;failed</title>
<path fill="none" stroke="black" d="M388.51,-65.99C434.3,-71.85 504.78,-81.41 565.59,-92 574.22,-93.5 583.44,-95.29 592.2,-97.07"/>
<polygon fill="black" stroke="black" points="591.39,-100.48 601.9,-99.08 592.82,-93.62 591.39,-100.48"/>
</g>
<!-- verifying -->
<g id="node5" class="node">
<title>verifying</title>
<ellipse fill="#fbf8f1" stroke="black" cx="500.16" cy="-22" rx="46.43" ry="18"/>
<text xml:space="preserve" text-anchor="middle" x="500.16" y="-17.8" font-family="Times,serif" font-size="14.00">verifying</text>
</g>
<!-- committed&#45;&gt;verifying -->
<g id="edge4" class="edge">
<title>committed&#45;&gt;verifying</title>
<path fill="none" stroke="black" d="M382.62,-49.82C403,-44.95 427.52,-39.1 448.81,-34.02"/>
<polygon fill="black" stroke="black" points="449.54,-37.44 458.45,-31.72 447.91,-30.63 449.54,-37.44"/>
</g>
<!-- verifying&#45;&gt;failed -->
<g id="edge8" class="edge">
<title>verifying&#45;&gt;failed</title>
<path fill="none" stroke="black" d="M529.52,-36.39C540.92,-42.44 554.06,-49.74 565.59,-57 579.06,-65.48 593.41,-75.69 605.43,-84.59"/>
<polygon fill="black" stroke="black" points="603.18,-87.28 613.28,-90.48 607.38,-81.68 603.18,-87.28"/>
</g>
<!-- succeeded -->
<g id="node6" class="node">
<title>succeeded</title>
<ellipse fill="#fbf8f1" stroke="black" cx="634.3" cy="-18" rx="50.71" ry="18"/>
<text xml:space="preserve" text-anchor="middle" x="634.3" y="-13.8" font-family="Times,serif" font-size="14.00">succeeded</text>
</g>
<!-- verifying&#45;&gt;succeeded -->
<g id="edge5" class="edge">
<title>verifying&#45;&gt;succeeded</title>
<path fill="none" stroke="black" d="M546.63,-20.62C554.94,-20.37 563.73,-20.11 572.4,-19.84"/>
<polygon fill="black" stroke="black" points="572.27,-23.35 582.16,-19.55 572.06,-16.35 572.27,-23.35"/>
</g>
</g>
</svg>
